<?xml version="1.0" standalone="no"?>
<svg viewBox="0 0 200 200" xmlns="http://www.w3.org/2000/svg">
  <path fill="#8A3FFC" d="M36.1,-65.7C45.4,-57.1,50.7,-44.7,55.6,-33.2C60.4,-21.6,64.8,-10.8,64.5,-0.2C64.1,10.4,59.1,20.8,52,28.5C44.9,36.1,35.7,41.1,26.7,47.5C17.7,54,8.8,62.1,-2.2,65.8C-13.2,69.6,-26.5,69.2,-35.1,62.5C-43.7,55.8,-47.7,42.8,-57.7,31.4C-67.6,19.9,-83.5,10,-85,-0.9C-86.6,-11.7,-73.7,-23.5,-64.9,-36.8C-56.1,-50.2,-51.2,-65.2,-41.1,-73.3C-30.9,-81.5,-15.4,-82.6,-1,-80.8C13.4,-79,26.7,-74.3,36.1,-65.7Z" transform="translate(100 100)" />
</svg>
