<?xml version="1.0" standalone="no"?>
<svg viewBox="0 0 200 200" xmlns="http://www.w3.org/2000/svg">
  <path fill="#FF0066" d="M42.4,-72C53.2,-67.3,58.9,-52.3,62.9,-38.6C66.9,-24.9,69.2,-12.4,69.1,0C69,12.3,66.6,24.7,61.3,36.2C56,47.7,48,58.4,37.3,68.8C26.6,79.2,13.3,89.2,0.4,88.6C-12.6,88,-25.2,76.7,-36.6,66.8C-48,56.8,-58.2,48.1,-65.7,37.2C-73.3,26.3,-78.2,13.2,-80.1,-1.1C-81.9,-15.3,-80.7,-30.6,-72.3,-40.2C-64,-49.8,-48.7,-53.7,-35.4,-57C-22.2,-60.2,-11.1,-62.8,2.4,-66.9C15.8,-71,31.7,-76.7,42.4,-72Z" transform="translate(100 100)" />
</svg>
