<?xml version="1.0" standalone="no"?>
<svg viewBox="0 0 200 200" xmlns="http://www.w3.org/2000/svg">
  <path fill="#F1C21B" d="M17.5,-36.8C24.5,-26.2,33.4,-25.3,40.2,-20.8C47.1,-16.3,51.9,-8.1,52.6,0.4C53.2,8.9,49.7,17.7,48,31.3C46.4,44.9,46.7,63.1,39,64.4C31.3,65.6,15.7,49.9,0.3,49.4C-15.1,49,-30.3,63.8,-43.6,65.8C-56.9,67.8,-68.4,56.9,-75.3,43.8C-82.2,30.7,-84.6,15.4,-76.7,4.5C-68.9,-6.3,-50.9,-12.7,-43,-24C-35.1,-35.4,-37.2,-51.7,-31.7,-63.3C-26.2,-74.8,-13.1,-81.6,-3.9,-74.7C5.2,-67.9,10.4,-47.5,17.5,-36.8Z" transform="translate(100 100)" />
</svg>
